HIERARCHY
ROOT SpineBase
{
  OFFSET 0.000000 0.000000 0.000000
  CHANNELS 6 Xposition Yposition Zposition Zrotation Xrotation Yrotation
  JOINT SpineMid
  {
    OFFSET 0.000000 31.220258 0.000000
    CHANNELS 3 Zrotation Xrotation Yrotation
    JOINT SpineShoulder
    {
      OFFSET 0.087970 23.175900 -0.819869
      CHANNELS 3 Zrotation Xrotation Yrotation
      JOINT Neck
      {
        OFFSET 0.064621 7.662871 -0.603717
        CHANNELS 3 Zrotation Xrotation Yrotation
        JOINT Head
        {
          OFFSET -5.538755 12.606335 1.531332
          CHANNELS 3 Zrotation Xrotation Yrotation
          End Site
          {
            OFFSET 0 0 0
          }
        }
      }
      JOINT ShoulderLeft
      {
        OFFSET -16.298240 -5.203364 9.540196
        CHANNELS 3 Zrotation Xrotation Yrotation
        JOINT ElbowLeft
        {
          OFFSET -1.161846 -24.741437 -0.245177
          CHANNELS 3 Zrotation Xrotation Yrotation
          JOINT WristLeft
          {
            OFFSET 0.163322 -24.514980 -3.374692
            CHANNELS 3 Zrotation Xrotation Yrotation
            JOINT HandLeft
            {
              OFFSET -0.153603 -7.440975 -2.130128
              CHANNELS 3 Zrotation Xrotation Yrotation
              JOINT HandTipLeft
              {
                OFFSET 0.852644 -7.314283 -0.296912
                CHANNELS 3 Zrotation Xrotation Yrotation
                End Site
                {
                  OFFSET 0 0 0
                }
              }
              JOINT ThumbLeft
              {
                OFFSET 3.926481 3.382189 -1.128290
                CHANNELS 3 Zrotation Xrotation Yrotation
                End Site
                {
                  OFFSET 0 0 0
                }
              }
            }
          }
        }
      }
      JOINT ShoulderRight
      {
        OFFSET 13.714988 -2.964905 -8.479928
        CHANNELS 3 Zrotation Xrotation Yrotation
        JOINT ElbowRight
        {
          OFFSET 7.916937 -23.602762 -2.397305
          CHANNELS 3 Zrotation Xrotation Yrotation
          JOINT WristRight
          {
            OFFSET -5.252199 -18.648705 -7.352955
            CHANNELS 3 Zrotation Xrotation Yrotation
            JOINT HandRight
            {
              OFFSET -5.438336 -6.659452 -0.881053
              CHANNELS 3 Zrotation Xrotation Yrotation
              JOINT HandTipRight
              {
                OFFSET -4.234436 -8.731105 -2.072246
                CHANNELS 3 Zrotation Xrotation Yrotation
                End Site
                {
                  OFFSET 0 0 0
                }
              }
              JOINT ThumbRight
              {
                OFFSET 4.568976 1.555467 -0.517436
                CHANNELS 3 Zrotation Xrotation Yrotation
                End Site
                {
                  OFFSET 0 0 0
                }
              }
            }
          }
        }
      }
    }
  }
  JOINT HipLeft
  {
    OFFSET -6.661117 0.069581 -0.647430
    CHANNELS 3 Zrotation Xrotation Yrotation
    JOINT KneeLeft
    {
      OFFSET 5.357716 -35.565727 5.193793
      CHANNELS 3 Zrotation Xrotation Yrotation
      JOINT AnkleLeft
      {
        OFFSET 10.059845 -37.694231 10.860955
        CHANNELS 3 Zrotation Xrotation Yrotation
        JOINT FootLeft
        {
          OFFSET -1.937146 -6.853757 -5.134753
          CHANNELS 3 Zrotation Xrotation Yrotation
          End Site
          {
            OFFSET 0 0 0
          }
        }
      }
    }
  }
  JOINT HipRight
  {
    OFFSET 7.344166 1.754320 -6.436191
    CHANNELS 3 Zrotation Xrotation Yrotation
    JOINT KneeRight
    {
      OFFSET 9.281772 -34.113051 -0.854054
      CHANNELS 3 Zrotation Xrotation Yrotation
      JOINT AnkleRight
      {
        OFFSET 8.308096 -37.754913 9.777499
        CHANNELS 3 Zrotation Xrotation Yrotation
        JOINT FootRight
        {
          OFFSET -0.524660 -7.089942 -5.171944
          CHANNELS 3 Zrotation Xrotation Yrotation
          End Site
          {
            OFFSET 0 0 0
          }
        }
      }
    }
  }
}
MOTION
Frames: 5
Frame Time: 0.033333
-29.808231 80.675191 332.319561 5.393843 -2.930336 35.715737 0.234712 0.028387 -35.382301 0.032987 -0.103911 0.261817 10.940471 -13.279082 -7.617232 0.000000 0.000000 0.000000 -8.825237 31.114069 -0.658615 -127.729461 67.278352 109.071929 -163.867664 44.668357 135.880546 133.073628 0.046394 -164.184265 0.000000 0.000000 0.000000 0.000000 0.000000 0.000000 2.905833 21.508943 3.172967 -74.500282 -5.177288 3.882075 1.579402 -15.563691 -14.990099 -0.901144 6.048742 2.814148 0.000000 0.000000 0.000000 0.000000 0.000000 0.000000 -4.100094 10.035766 -35.373749 2.335985 -1.896440 -0.001128 -0.360703 1.137278 0.895190 0.000000 0.000000 0.000000 -4.504197 5.756502 -35.462583 -0.539959 0.521700 -0.425547 -1.510286 7.657857 2.839379 0.000000 0.000000 0.000000
-29.837288 80.725688 332.344871 5.428212 -2.932079 35.774878 0.223783 0.036615 -35.439479 0.026900 -0.111415 0.262824 10.877671 -13.274389 -7.621393 0.000000 0.000000 0.000000 -8.534373 31.702019 -0.766499 -127.543079 67.743991 108.808647 -162.425105 45.562104 136.720823 136.951553 -1.354664 -167.152488 0.000000 0.000000 0.000000 0.000000 0.000000 0.000000 2.746857 21.491267 3.209641 -74.208997 -4.909248 3.963828 0.789870 -15.545504 -15.049188 0.481740 6.093118 2.396469 0.000000 0.000000 0.000000 0.000000 0.000000 0.000000 -4.113420 10.119799 -35.427081 2.395326 -1.950827 0.005198 0.012123 0.829736 0.677584 0.000000 0.000000 0.000000 -4.540215 5.815053 -35.510687 -0.457116 0.520819 -0.414945 -0.203509 5.831091 1.911649 0.000000 0.000000 0.000000
-29.866506 80.776433 332.366396 5.458532 -2.930232 35.807491 0.213993 0.039761 -35.470318 0.027815 -0.117267 0.264124 10.723775 -13.357016 -7.650820 0.000000 0.000000 0.000000 -8.274634 32.382986 -0.872874 -127.058821 68.286389 108.280419 -160.673590 41.304845 142.126848 139.545059 -3.702682 -158.812274 0.000000 0.000000 0.000000 0.000000 0.000000 0.000000 2.586284 21.505715 3.253184 -73.955744 -4.800390 3.962680 0.173481 -15.587437 -15.048292 1.680985 3.992499 1.825261 0.000000 0.000000 0.000000 0.000000 0.000000 0.000000 -4.122188 10.220153 -35.452421 2.475886 -2.004693 0.020960 0.527368 0.557881 0.318559 0.000000 0.000000 0.000000 -4.574747 5.859602 -35.534407 -0.361184 0.541638 -0.393928 -3.066154 10.370270 3.734087 0.000000 0.000000 0.000000
-29.900054 80.836312 332.390867 5.482926 -2.940568 35.828585 0.201307 0.041462 -35.489238 0.027847 -0.122478 0.265072 10.672656 -13.405725 -7.677576 0.000000 0.000000 0.000000 -7.899279 33.294216 -1.022863 -126.155568 69.053917 107.328434 -160.517370 38.094744 145.620485 144.858671 -4.136490 -157.060752 0.000000 0.000000 0.000000 0.000000 0.000000 0.000000 2.422472 21.530572 3.298490 -73.703517 -4.755076 3.946609 -0.359803 -14.901025 -15.086021 2.678933 1.946879 1.537006 0.000000 0.000000 0.000000 0.000000 0.000000 0.000000 -4.141131 10.281080 -35.469579 2.510088 -1.991832 0.034917 1.156626 0.740569 -0.222252 0.000000 0.000000 0.000000 -4.576362 5.909597 -35.545550 -0.286952 0.523538 -0.383212 -1.739788 8.192658 2.774206 0.000000 0.000000 0.000000
-29.925796 80.886568 332.409536 5.502320 -2.949452 35.801957 0.191681 0.039529 -35.460683 0.028582 -0.127008 0.266008 10.695539 -13.368171 -7.678282 0.000000 0.000000 0.000000 -7.657049 33.806480 -1.122126 -125.695582 69.587529 106.966286 -154.739666 29.156579 156.407005 148.542434 -11.186970 -135.105169 0.000000 0.000000 0.000000 0.000000 0.000000 0.000000 2.278042 21.648363 3.362231 -73.431967 -4.517457 3.887616 -0.853726 -14.359212 -15.179077 3.635227 1.000137 1.372859 0.000000 0.000000 0.000000 0.000000 0.000000 0.000000 -4.171400 10.308837 -35.440607 2.508125 -1.949849 0.043220 1.488490 1.426422 -0.659309 0.000000 0.000000 0.000000 -4.574316 5.940569 -35.512085 -0.248410 0.522320 -0.373949 -3.581442 11.336314 3.961918 0.000000 0.000000 0.000000
